<svg width="1240" height="262" viewBox="0 0 1240 262" fill="none" xmlns="http://www.w3.org/2000/svg">
<path fill-rule="evenodd" clip-rule="evenodd" d="M216.46 0H14C6.26801 0 0 6.26801 0 14V88.2605C12.3207 85.7744 28.67 83.0194 45.4294 81.2408C66.7512 78.9781 88.8652 78.2805 104.186 81.7992C120.252 85.4888 137.743 93.0831 155.655 100.86C158.979 102.303 162.317 103.752 165.663 105.184C187.11 114.361 208.92 122.837 229.698 124.636C240.031 125.531 254.682 123.775 271.849 120.73C284.556 118.475 298.575 115.528 313.158 112.462L313.16 112.462L313.162 112.461L313.164 112.461L313.167 112.46L313.169 112.46C318.259 111.39 323.418 110.305 328.613 109.231C348.682 105.08 369.284 101.083 388.505 98.6703C407.715 96.2593 425.611 95.4225 440.251 97.6262C469.465 102.024 488.926 113.055 505.088 124.041C508.412 126.301 511.573 128.541 514.645 130.719C519.076 133.859 523.32 136.867 527.597 139.61C534.798 144.227 541.945 147.987 549.862 150.121C557.745 152.246 568.132 152.35 580.131 151.416C590.828 150.584 602.713 148.936 615.121 147.215L615.166 147.209C616.642 147.004 618.124 146.798 619.614 146.593C647.601 142.733 677.817 138.947 702.185 143.788C726.26 148.571 745.929 162.747 764.564 176.178L765.367 176.758C784.327 190.42 802.206 203.105 822.838 204.892C833.177 205.787 846.827 204.248 862.472 201.535C874.052 199.526 886.665 196.886 899.772 194.142L899.793 194.138C904.372 193.179 909.011 192.208 913.688 191.247C949.751 183.835 988.041 177.006 1017.26 181.404C1031.86 183.602 1042.24 187.224 1050.3 191.635C1058.36 196.047 1064.04 201.224 1069.25 206.45C1070.32 207.531 1071.38 208.614 1072.43 209.694L1072.43 209.696C1081.52 219.024 1090.35 228.08 1109.94 233.361C1120.83 236.297 1135.31 236.287 1150.97 234.571C1166.61 232.858 1183.34 229.456 1198.72 225.675C1214.09 221.896 1228.08 217.743 1238.22 214.535C1238.83 214.343 1239.42 214.155 1240 213.97V129.126C1218.7 134.246 1191.73 137.906 1169.36 131.876C1149.23 126.449 1140.06 117.039 1130.94 107.676C1129.89 106.597 1128.84 105.518 1127.77 104.446C1122.62 99.2738 1117.1 94.252 1109.28 89.974C1101.47 85.6955 1091.31 82.1356 1076.9 79.9662C1048.1 75.6305 1010.16 82.3639 974.031 89.7902C969.367 90.7488 964.733 91.7189 960.154 92.6774L960.154 92.6775C947.036 95.4235 934.372 98.0744 922.754 100.089C907.094 102.806 893.223 104.388 882.606 103.469C861.326 101.626 842.996 88.5531 824.14 74.9646L823.48 74.4893C804.743 60.9852 785.381 47.0311 761.736 42.3338C737.758 37.5706 707.891 41.2874 679.827 45.1583C678.324 45.3657 676.825 45.5735 675.333 45.7804C662.937 47.4997 650.989 49.1569 640.226 49.9944C628.185 50.9315 617.511 50.8544 609.282 48.6362C601.087 46.427 593.743 42.5485 586.458 37.8775C582.162 35.1227 577.835 32.0564 573.36 28.8857L573.355 28.8824C570.287 26.7083 567.15 24.4852 563.905 22.2798C551.461 13.8201 537.116 5.38011 517.836 0H429.857C416.396 2.22011 402.569 4.95848 388.959 7.77316C383.78 8.84428 378.632 9.92672 373.547 10.9957L373.538 10.9976L373.537 10.9978C358.945 14.0657 344.88 17.0226 332.139 19.2829C314.975 22.3278 300.089 24.133 289.466 23.2131C268.331 21.383 246.251 12.7782 224.818 3.60707C222.019 2.40968 219.233 1.20292 216.46 0ZM524.703 0C541.135 5.43016 553.87 13.0384 565.031 20.6255C568.354 22.8846 571.515 25.1253 574.587 27.3026L574.588 27.303C579.018 30.4431 583.262 33.4515 587.539 36.1936C594.74 40.8108 601.888 44.571 609.804 46.7051C617.687 48.8299 628.075 48.9342 640.073 48.0005C650.771 47.168 662.655 45.5198 675.063 43.799L675.094 43.7947C676.574 43.5894 678.062 43.3831 679.556 43.1771C707.544 39.3166 737.759 35.5314 762.127 40.3722C786.203 45.1549 805.871 59.3307 824.506 72.762L825.31 73.3417C844.27 87.0045 862.148 99.6894 882.781 101.476C893.12 102.371 906.769 100.832 922.414 98.1189C933.995 96.1103 946.608 93.47 959.715 90.7263L959.735 90.722C964.315 89.7634 968.954 88.7923 973.63 87.8312C1009.69 80.4192 1047.98 73.5906 1077.2 77.9885C1091.8 80.1859 1102.18 83.808 1110.24 88.2195C1118.3 92.6316 1123.98 97.8076 1129.19 103.034C1130.26 104.115 1131.32 105.198 1132.37 106.278L1132.37 106.28C1141.47 115.608 1150.29 124.664 1169.88 129.945C1191.79 135.849 1218.4 132.27 1239.64 127.157C1239.76 127.127 1239.88 127.098 1240 127.069V14C1240 6.26801 1233.73 0 1226 0H524.703ZM418.172 0C408.322 1.78972 398.375 3.78384 388.556 5.81463C383.356 6.88995 378.194 7.9753 373.1 9.04618C358.518 12.112 344.499 15.0593 331.791 17.3137C314.624 20.359 299.973 22.1153 289.64 21.2206C268.863 19.4214 247.052 10.9451 225.606 1.76823C224.234 1.18122 222.864 0.59126 221.495 0H418.172ZM1240 216.069C1239.61 216.192 1239.22 216.316 1238.82 216.442C1228.65 219.659 1214.62 223.825 1199.19 227.618C1183.77 231.409 1166.95 234.833 1151.19 236.559C1135.45 238.283 1120.68 238.327 1109.42 235.292C1089.29 229.865 1080.12 220.455 1071 211.092C1069.95 210.013 1068.89 208.934 1067.83 207.862C1062.68 202.69 1057.15 197.668 1049.34 193.39C1041.52 189.111 1031.37 185.551 1016.96 183.382C988.154 179.046 950.221 185.78 914.089 193.206C909.441 194.161 904.823 195.128 900.26 196.083L900.224 196.091L900.217 196.092L900.211 196.093C887.093 198.839 874.429 201.49 862.812 203.505C847.151 206.222 833.281 207.804 822.664 206.884C801.384 205.042 783.054 191.969 764.197 178.381L763.538 177.905C744.8 164.401 725.439 150.447 701.793 145.75C677.816 140.987 647.949 144.703 619.885 148.574C618.388 148.781 616.897 148.987 615.412 149.193L615.407 149.194L615.401 149.195L615.396 149.196L615.391 149.196C602.995 150.916 591.046 152.573 580.284 153.41C568.242 154.347 557.569 154.27 549.34 152.052C541.144 149.843 533.801 145.964 526.516 141.293C522.219 138.539 517.892 135.472 513.417 132.301C510.347 130.126 507.209 127.902 503.963 125.696C487.937 114.802 468.76 103.94 439.952 99.604C425.582 97.4409 407.9 98.2515 388.752 100.655C369.615 103.056 349.079 107.04 329.017 111.189C323.837 112.26 318.688 113.343 313.603 114.412L313.595 114.414C299.003 117.481 284.938 120.438 272.196 122.699C255.032 125.744 240.147 127.549 229.524 126.629C208.389 124.799 186.308 116.194 164.875 107.023C161.504 105.58 158.149 104.124 154.816 102.677L154.814 102.676C136.894 94.8973 119.606 87.3928 103.737 83.7484C88.7641 80.3098 66.9367 80.9694 45.6387 83.2296C28.7673 85.0201 12.3088 87.8053 0 90.3006V151.153C12.3006 148.676 28.5757 145.938 45.2572 144.168C66.579 141.905 88.6929 141.208 104.014 144.726C120.079 148.416 137.571 156.01 155.483 163.787L155.483 163.787C158.807 165.23 162.145 166.68 165.491 168.111C186.938 177.288 208.748 185.765 229.526 187.564C239.859 188.459 254.51 186.702 271.676 183.657C284.384 181.403 298.403 178.455 312.986 175.389L312.989 175.389C318.081 174.318 323.243 173.233 328.441 172.158C348.51 168.007 369.112 164.01 388.332 161.598C407.542 159.187 425.438 158.35 440.079 160.554C469.293 164.951 488.754 175.982 504.916 186.969C508.238 189.227 511.399 191.467 514.47 193.644L514.473 193.646L514.477 193.649L514.478 193.65L514.48 193.651L514.484 193.654C518.91 196.791 523.151 199.797 527.424 202.537C534.625 207.154 541.773 210.914 549.689 213.048C557.572 215.173 567.96 215.277 579.958 214.344C590.656 213.511 602.54 211.863 614.948 210.142L614.994 210.136C616.469 209.931 617.952 209.726 619.441 209.52C647.429 205.66 677.644 201.875 702.012 206.715C726.088 211.498 745.756 225.674 764.391 239.105L765.195 239.685C777.243 248.366 788.853 256.653 801.011 262H875.55C883.27 260.488 891.321 258.803 899.567 257.076L899.594 257.071L899.6 257.07L899.622 257.065L899.695 257.05C904.25 256.096 908.864 255.13 913.516 254.174C949.578 246.762 987.868 239.934 1017.09 244.332C1031.68 246.529 1042.07 250.151 1050.13 254.563C1054.34 256.867 1057.9 259.38 1061.08 262H1226C1233.73 262 1240 255.732 1240 248V216.069ZM0 243.406V153.193C12.2898 150.707 28.6737 147.939 45.4665 146.157C66.7645 143.897 88.5919 143.237 103.565 146.676C119.433 150.32 136.721 157.825 154.641 165.604C157.975 167.051 161.331 168.507 164.703 169.95C186.136 179.121 208.217 187.726 229.351 189.556C239.975 190.476 254.86 188.671 272.024 185.626C284.765 183.366 298.83 180.409 313.423 177.341L313.43 177.339L313.449 177.335L313.46 177.333C318.535 176.266 323.675 175.186 328.844 174.116C348.907 169.967 369.443 165.984 388.58 163.582C407.728 161.179 425.41 160.368 439.78 162.531C468.588 166.868 487.765 177.729 503.791 188.623C507.036 190.83 510.176 193.054 513.245 195.229C517.72 198.4 522.047 201.466 526.344 204.221C533.629 208.892 540.972 212.77 549.167 214.979C557.396 217.198 568.07 217.275 580.112 216.338C590.874 215.5 602.822 213.843 615.219 212.124C616.711 211.917 618.209 211.709 619.713 211.502C647.777 207.631 677.643 203.914 701.621 208.677C725.267 213.374 744.628 227.328 763.365 240.833L764.025 241.308C774.736 249.026 785.276 256.578 796.284 262H324.252C321.535 260.148 318.799 258.209 315.988 256.217L315.985 256.214L315.981 256.212L315.978 256.21L315.975 256.207L315.972 256.206L315.972 256.205C312.902 254.029 309.742 251.79 306.421 249.532C290.259 238.545 270.798 227.514 241.584 223.117C226.943 220.913 209.047 221.75 189.837 224.161C170.617 226.573 150.015 230.571 129.946 234.721C124.748 235.796 119.588 236.881 114.496 237.952L114.491 237.953L114.491 237.953L114.489 237.953C99.9071 241.019 85.8887 243.966 73.1813 246.22C56.0147 249.266 41.3636 251.022 31.0307 250.127C20.8794 249.248 10.4815 246.775 0 243.406ZM0 245.506V248C0 255.732 6.268 262 14 262H320.726C318.759 260.633 316.773 259.226 314.757 257.797L314.751 257.793L314.75 257.792L314.75 257.792L314.75 257.792L314.749 257.792C311.68 255.617 308.541 253.393 305.296 251.186C289.27 240.292 270.093 229.431 241.285 225.095C226.915 222.932 209.233 223.742 190.085 226.145C170.948 228.547 150.412 232.531 130.349 236.68C125.173 237.75 120.026 238.832 114.944 239.901L114.933 239.903L114.929 239.904L114.928 239.904L114.926 239.905C100.334 242.973 86.2698 245.929 73.5289 248.19C56.3651 251.234 41.4796 253.04 30.8563 252.12C20.7296 251.243 10.3857 248.811 0 245.506ZM1057.87 262H885.706C890.393 261.04 895.171 260.04 900.012 259.026L900.022 259.024L900.035 259.022L900.039 259.021C904.618 258.062 909.252 257.092 913.917 256.133C950.049 248.707 987.982 241.974 1016.79 246.309C1031.2 248.479 1041.35 252.039 1049.17 256.317C1052.42 258.097 1055.27 260.005 1057.87 262Z" fill="#A08FCF"/>
</svg>
